<?xml version="1.0" standalone="no"?><!DOCTYPE svg PUBLIC "-//W3C//DTD SVG 1.1//EN" "http://www.w3.org/Graphics/SVG/1.1/DTD/svg11.dtd"><svg t="1607834753306" class="icon" viewBox="0 0 1024 1024" version="1.1" xmlns="http://www.w3.org/2000/svg" p-id="16721" xmlns:xlink="http://www.w3.org/1999/xlink" width="200" height="200"><defs><style type="text/css"></style></defs><path d="M320.054363 320.147484l256.328993 0 0 63.986313-256.328993 0 0-63.986313Z" p-id="16722" fill="#2c2c2c"></path><path d="M320.054363 447.935915l383.995651 0 0 63.987337-383.995651 0 0-63.987337Z" p-id="16723" fill="#2c2c2c"></path><path d="M320.054363 575.727417l383.995651 0 0 63.984267-383.995651 0 0-63.984267Z" p-id="16724" fill="#2c2c2c"></path><path d="M320.054363 703.516872l383.995651 0 0 63.983243-383.995651 0 0-63.983243Z" p-id="16725" fill="#2c2c2c"></path><path d="M895.490138 277.157367l0-21.379936-63.46852 0 0-62.908772-63.909565 0 0 62.908772-64.062038 0 0-62.908772 64.061015 0 0-63.986313-64.061015 0L704.050014 64.896032 129.48098 64.896032l0 63.371306 0 0.613984 0 766.602675 0 53.832046 0 10.153244 702.253088 0 0 0.001023 63.757093 0L895.491161 277.157367 895.490138 277.157367zM193.237049 895.483998 193.237049 128.881322l446.902376 0 0 62.524009 0 1.462305 0 62.908772 0 64.370053 0 0.001023 63.909565 0 0-0.001023 64.062038 0 0 0.001023 63.62304 0 0 575.336514L193.237049 895.483998z" p-id="16726" fill="#2c2c2c"></path></svg>