<?xml version="1.0" standalone="no"?><!DOCTYPE svg PUBLIC "-//W3C//DTD SVG 1.1//EN" "http://www.w3.org/Graphics/SVG/1.1/DTD/svg11.dtd"><svg t="1610273759989" class="icon" viewBox="0 0 1345 1024" version="1.1" xmlns="http://www.w3.org/2000/svg" p-id="3146" xmlns:xlink="http://www.w3.org/1999/xlink" width="262.6953125" height="200"><defs><style type="text/css"></style></defs><path d="M958.703051 1019.316498H292.159272c-75.502304 0-136.847926-61.345622-136.847926-136.847927v-588.682027c0-75.502304 61.345622-136.847926 136.847926-136.847926h666.543779c76.682028 0 138.02765 61.345622 138.02765 136.847926v587.502304c0 76.682028-61.345622 138.02765-138.02765 138.02765" fill="#F1F3F5" p-id="3147"></path><path d="M358.223788 635.906359H294.518719c-21.235023 0-38.930876-17.695853-38.930876-38.930875v-63.705069c0-21.235023 17.695853-38.930876 38.930876-38.930876h64.884793c21.235023 0 38.930876 17.695853 38.930875 38.930876v63.705069c-1.179724 21.235023-18.875576 38.930876-40.110599 38.930875M913.873558 635.906359H848.988765c-21.235023 0-38.930876-17.695853-38.930875-38.930875v-63.705069c0-21.235023 17.695853-38.930876 38.930875-38.930876h64.884793c21.235023 0 38.930876 17.695853 38.930875 38.930876v63.705069c-1.179724 21.235023-17.695853 38.930876-38.930875 38.930875M635.458811 635.906359h-64.884792c-21.235023 0-38.930876-17.695853-38.930876-38.930875v-63.705069c0-21.235023 17.695853-38.930876 38.930876-38.930876h64.884792c21.235023 0 38.930876 17.695853 38.930876 38.930876v63.705069c0 21.235023-17.695853 38.930876-38.930876 38.930875M358.223788 870.671336H294.518719c-21.235023 0-38.930876-17.695853-38.930876-38.930875v-63.705069c0-21.235023 17.695853-38.930876 38.930876-38.930876h64.884793c21.235023 0 38.930876 17.695853 38.930875 38.930876v63.705069c-1.179724 21.235023-18.875576 38.930876-40.110599 38.930875M635.458811 870.671336h-64.884792c-21.235023 0-38.930876-17.695853-38.930876-38.930875v-63.705069c0-21.235023 17.695853-38.930876 38.930876-38.930876h64.884792c21.235023 0 38.930876 17.695853 38.930876 38.930876v63.705069c0 21.235023-17.695853 38.930876-38.930876 38.930875M913.873558 870.671336H848.988765c-21.235023 0-38.930876-17.695853-38.930875-38.930875v-63.705069c0-21.235023 17.695853-38.930876 38.930875-38.930876h64.884793c21.235023 0 38.930876 17.695853 38.930875 38.930876v63.705069c-1.179724 21.235023-17.695853 38.930876-38.930875 38.930875" fill="#CED4DA" p-id="3148"></path><path d="M13.744525 402.321106H1238.297521V64.920184H13.744525z" fill="#FF6B6B" p-id="3149"></path><path d="M13.744525 402.321106H1238.297521v-55.447005H13.744525z" fill="#FA5252" p-id="3150"></path><path d="M388.896599 286.672811c-33.032258 0-60.165899-27.133641-60.165898-60.165899V159.262673C327.550977 126.230415 354.684618 99.096774 388.896599 99.096774c33.032258 0 60.165899 27.133641 60.165899 60.165899v66.064516c0 34.211982-27.133641 61.345622-60.165899 61.345622M863.145447 286.672811c-33.032258 0-60.165899-27.133641-60.165898-60.165899V159.262673C801.799825 126.230415 828.933466 99.096774 863.145447 99.096774c33.032258 0 60.165899 27.133641 60.165899 60.165899v66.064516c0 34.211982-27.133641 61.345622-60.165899 61.345622" fill="#495057" p-id="3151"></path><path d="M615.403512 605.198157c-4.718894 0-10.617512-2.359447-14.156682-5.898618l-43.64977-43.649769c-8.258065-8.258065-8.258065-20.0553 0-28.313364s20.0553-8.258065 28.313364 0l29.493088 29.493087 115.612903-115.612903c8.258065-8.258065 20.0553-8.258065 28.313364 0s8.258065 20.0553 0 28.313364l-129.769585 129.769585c-3.539171 4.718894-8.258065 5.898618-14.156682 5.898618" fill="#12B886" p-id="3152"></path></svg>